<?xml version="1.0" encoding="utf-8"?>
<!-- Generator: Adobe Illustrator 25.2.1, SVG Export Plug-In . SVG Version: 6.00 Build 0)  -->
<svg version="1.1" id="Testimonials" xmlns="http://www.w3.org/2000/svg" xmlns:xlink="http://www.w3.org/1999/xlink" x="0px"
	 y="0px" viewBox="0 0 356 495" style="enable-background:new 0 0 356 495;" xml:space="preserve">
<style type="text/css">
	.st0{fill:#32E6F9;}
	.st1{opacity:0.12;fill:#FFFFFF;enable-background:new    ;}
	.st2{fill:#37D9F4;}
	.st3{opacity:0.9;fill:#34E0F7;enable-background:new    ;}
	.st4{clip-path:url(#SVGID_2_);}
	.st5{fill:#16895D;}
	.st6{fill-rule:evenodd;clip-rule:evenodd;fill:#AC5143;}
	.st7{fill-rule:evenodd;clip-rule:evenodd;fill:#9B463D;}
	.st8{fill:#23B781;}
	.st9{fill:#33CB93;}
	.st10{clip-path:url(#SVGID_4_);}
	.st11{fill:#016668;}
	.st12{fill:#38C7E8;}
	.st13{fill:#179668;}
	.st14{opacity:0.75;fill:#3CBF80;enable-background:new    ;}
	.st15{clip-path:url(#SVGID_6_);}
	.st16{opacity:0.9;fill:#30B57C;enable-background:new    ;}
	.st17{fill:#279661;}
	.st18{fill:#9B503E;}
	.st19{fill:#F2B161;}
	.st20{fill:#AE633A;}
	.st21{fill:#B87893;}
	.st22{fill:#D8C5C3;}
	.st23{fill:#F9E4DC;}
	.st24{opacity:0.5;fill:#E4C3C3;enable-background:new    ;}
	.st25{opacity:0.5;fill:#E0C1C1;enable-background:new    ;}
	.st26{fill:#30B57C;}
	.st27{fill:#F27D31;}
	.st28{fill:#F4AE3D;}
	.st29{fill:#FFCA69;}
	.st30{fill:url(#SVGID_7_);}
	.st31{fill:url(#SVGID_8_);}
	.st32{fill:url(#SVGID_9_);}
	.st33{fill:url(#SVGID_10_);}
	.st34{fill:url(#SVGID_11_);}
	.st35{fill:url(#SVGID_12_);}
	.st36{fill:url(#SVGID_13_);}
	.st37{fill:url(#SVGID_14_);}
	.st38{fill:url(#SVGID_15_);}
	.st39{fill:url(#SVGID_16_);}
	.st40{fill:url(#SVGID_17_);}
	.st41{opacity:0.45;fill:#C4A7A7;enable-background:new    ;}
	.st42{fill:#FF4964;}
	.st43{fill:#0A96AD;}
	.st44{fill:#0B7189;}
	.st45{fill:#E7F1F2;}
	.st46{fill:#0E9EA5;}
	.st47{opacity:0.45;fill:#0D809B;enable-background:new    ;}
	.st48{fill:#E23B5B;}
	.st49{fill:#D3355B;}
	.st50{fill:#E5E5E5;}
	.st51{fill:none;}
	.st52{fill:#F9AE83;}
	.st53{fill:#F58A69;}
	.st54{fill:#C1C1C1;}
	.st55{fill:#9E7B57;}
	.st56{fill:#1D394F;}
	.st57{fill:#C97355;}
	.st58{fill:#D8AA73;}
	.st59{fill:#F9D07D;}
	.st60{fill:#F5F5F5;}
	.st61{fill:#263238;}
	.st62{opacity:0.6;}
	.st63{fill:#0C87A8;}
	.st64{fill:#0B8CAA;}
	.st65{fill:#0C6877;}
	.st66{fill:#DE634B;}
	.st67{fill:#BA4D3E;}
	.st68{fill:#E59238;}
	.st69{clip-path:url(#SVGID_19_);}
	.st70{fill:#00707A;}
</style>
<g id="Elemen">
	<g id="Langit">
		<rect id="Langit_1_" class="st0" width="355.7" height="492.8"/>
		<path id="Awan" class="st1" d="M0,306.7c0,0,170.5-138.1,356-120.7v-59.2c0,0-170.5-16.4-356,55.4V306.7z"/>
	</g>
	<g id="Bukit">
		<path id="Bukit_x5F_Base" class="st2" d="M355.7,348c-16.4-23.2-30.6-62.2-66.5-62.2c-50.3,0-102.5,67.3-133.2,62.9
			c-48.5-7.1-61.2-28.4-93.7-28.4C29.8,320.2,0,349,0,349v27.2h355.7V348z"/>
		<path id="Bukit_x5F_Shad" class="st3" d="M290,285.7c0,0-14.8-1-28.1,7.5c-13.3,8.5-3.5,22.5,11,22.3c14.5-0.3,20.6-2,29.2,3.3
			s-8.4,10.5-17.2,12c-8.8,1.5-10.4,17.3,31.7,17.7c36.8,0.3,39.1,3.5,39.1,3.5v-11.5c0,0-0.4-19.3-7.1-24.5
			C325.5,297.6,307.9,286.7,290,285.7z"/>
	</g>
	<g id="Pohon">
		<g>
			<g>
				<defs>
					<rect id="SVGID_1_" width="310.6" height="492.8"/>
				</defs>
				<clipPath id="SVGID_2_">
					<use xlink:href="#SVGID_1_"  style="overflow:visible;"/>
				</clipPath>
				<g class="st4">
					<path class="st5" d="M-16.7,18c-6.2,9.9-7.7,28.8-3.2,38.7S-5.4,71.8,4,69.2C4.9,83,16.8,92.5,27.7,88.3
						c-5.9,12.5-4.5,28.9,3.2,38s20.9,9.9,30.6,2.1c6,15.1,19.9,24.1,34,22.2c14.1-1.9,27.9-14.7,33.7-31.5
						c8.1,10.2,25.2,5.3,30.8-8.8c6.4,9.7,17.9,13.5,28.2,9.5c10.3-4.1,19.1-15.8,21.5-28.8c17.2,8.3,41.5-15.2,44-39.2
						C178.7,38.6,103.1,28.7-16.7,18z"/>
					<path class="st6" d="M49.5,214.6c-6.7,12.7-42.8,38.3-42.8,38.3c-0.3,0.2-0.4,0.6-0.5,0.9L0.4,362.7
						c-0.3,5.3-1.9,10.5-4.6,15.1l-19.7,33c-0.4,0.7-1.3,0.9-1.9,0.5c-0.1,0-0.1-0.1-0.2-0.1l-15.6-12.9l-0.1-0.1l-24.6-23.4
						c-0.5-0.5-0.6-1.2-0.2-1.8l24-35.5c3.8-5.6,6.3-11.8,7.5-18.5l12.2-67.5c0-0.2,0.1-0.4,0.2-0.5l43.2-66.7
						c0.2-0.3,0.3-0.7,0.2-1l-7.5-42.5c-0.1-0.3,0-0.6,0.1-0.9l28.5-55.8c0.1-0.2,0.2-0.5,0.1-0.8l-4-34c0-0.4,0.1-0.8,0.3-1.1
						l0.3-0.4l4.8,28.3c0,0.2,0.1,0.4,0.2,0.5l2.2,3.3c0.3,0.4,0.3,0.9,0.1,1.4l-7,15.3c-0.1,0.2-0.2,0.5-0.1,0.7l0.3,2.7
						c0.1,0.8,0.8,1.3,1.6,1.3c0.1,0,0.1,0,0.2,0l27-6.1c0.2,0,0.3-0.1,0.4-0.2L84,85.4c0.3-0.2,0.6-0.2,0.9-0.2l1,0.1L68.4,97
						c-0.1,0.1-0.2,0.1-0.3,0.2l-31.5,10.3c-0.4,0.1-0.6,0.4-0.8,0.7L20.6,137c-0.2,0.4-0.2,0.8,0,1.2l13,30c0.3,0.7,1.1,1,1.9,0.7
						c0.2-0.1,0.4-0.2,0.5-0.4l24-27.8c0.1-0.1,0.1-0.1,0.2-0.2l53.6-40.8c0.2-0.2,0.4-0.4,0.5-0.6l11.6-30.8
						c0.3-0.7,1.1-1.1,1.8-0.8c0.1,0.1,0.3,0.1,0.4,0.2l0,0c0.4,0.4,0.6,0.9,0.5,1.5l-7,23.8c-0.2,0.7,0.2,1.5,1,1.8
						c0.3,0.1,0.7,0.1,1-0.1l12.7-6.1l0.2-0.1l11.5-3.6c0.5-0.1,1,0,1.3,0.3l7.8,6.4c0.6,0.5,0.7,1.4,0.2,2
						c-0.1,0.2-0.3,0.3-0.5,0.4L124,108.4c-0.1,0.1-0.2,0.1-0.3,0.2l-52.1,42.1c-0.1,0.1-0.2,0.2-0.3,0.3l-41.9,63.7
						c-0.4,0.6-0.3,1.5,0.3,2c0.5,0.3,1.1,0.3,1.5,0.1c0,0,15.7-5,18.1-9.5"/>
					<path class="st7" d="M42.8,160.6c-0.3,0.4-0.2,1,0.3,1.3c0.2,0.1,0.5,0.2,0.8,0.1l12.9-5.3l14.4-6c0.1,0,0.2-0.1,0.2-0.1
						l1.2-0.9c0.3-0.4,0.3-1-0.1-1.3c-0.2-0.2-0.5-0.2-0.8-0.2l-7.9,4h-0.1L51,156.9c-0.2,0.1-0.4,0.1-0.6,0l-2.7-1
						c-0.4-0.1-0.7,0-1,0.3L42.8,160.6z"/>
					<path class="st7" d="M70.9,134.5l19.9-11.1l0.2-0.1l23.2-7.5c0.1,0,0.2-0.1,0.3-0.2l0.7-0.6c0.3-0.4,0.3-1-0.1-1.3
						c-0.2-0.2-0.6-0.3-0.9-0.2l-22,8.7h-0.1l-3,0.9l-11.7,4c-0.1,0-0.2,0.1-0.3,0.1l-7.4,5.6c-0.3,0.4-0.3,1,0.2,1.3
						C70.3,134.5,70.6,134.6,70.9,134.5z"/>
					<path class="st7" d="M102.4,110.5l6.3-2.3c0.1,0,0.1,0,0.2,0l15.3-2l7-1.3c0.1,0,0.1,0,0.2-0.1l5.1-2.2
						c0.4-0.3,0.5-0.9,0.3-1.3c-0.2-0.2-0.4-0.4-0.7-0.4l-6.6,0.6h-0.2l-16.6,5.4h-0.2l-3.9,0.5c-0.2,0-0.4,0-0.6-0.1l-1.9-1.2
						c-0.3-0.2-0.7-0.2-1,0.1l-3.6,2.7c-0.5,0.2-0.6,0.8-0.4,1.3S102,110.8,102.4,110.5z"/>
					<path class="st7" d="M13.3,140.7l6,15.3c0,0.1,0.1,0.2,0.2,0.3L27,164c0,0,0,0,0.1,0.1l4.5,3.7c0.4,0.3,1,0.1,1.3-0.3
						c0.1-0.2,0.2-0.5,0.1-0.8l-0.5-1.2c-0.1-0.2-0.2-0.3-0.4-0.4l-5.8-3.4c-0.1,0-0.1-0.1-0.1-0.1l-4.6-4.3
						c-0.1-0.1-0.2-0.2-0.2-0.3l-5.8-12.8c-0.1-0.2-0.1-0.4-0.1-0.6l1.7-7.2c0-0.5-0.4-0.9-0.9-1c-0.3,0-0.6,0.1-0.8,0.4l-2,4
						C13.2,140.2,13.2,140.4,13.3,140.7z"/>
					<path class="st7" d="M32.6,102.4l-8.2,20.2c0,0.1,0,0.1,0,0.2l0,0c0,0.5,0.4,0.9,1,0.9c0.3,0,0.6-0.2,0.8-0.4l0.1-0.3v-0.1
						l6-12.5c0.1-0.1,0.2-0.3,0.3-0.4l3.1-2.1c0.3-0.2,0.4-0.6,0.4-0.9l-0.5-2.3v-0.1l-0.3-5c0-0.1,0-0.2,0-0.3l2.1-5.8L32.6,102.4
						L32.6,102.4z"/>
					<path class="st8" d="M308.5-2.8c-0.3,16.9-13.4,55.5-33.7,61.3C261,65.2,236.6,63,225,51.9c-3.5,22.8-19.4,42.4-39.3,48.5
						s-42.9-1.8-56.7-19.3c-7.7,9.4-20.6,13.3-31.7,9.5s-20-15-22-27.7c-17.8,17-44.8,19.7-65.6,6.6C-11,56.5-21.9,5.4-17.9-20.3
						C88.7-11.3,211.9-9.1,308.5-2.8z"/>
					<path class="st9" d="M312.4-14.1c-2.5,16.7-20.7,53.2-41.6,56.2c-14.6,4.8-38.5-0.6-48.5-13.1c-6.5,22.1-24.9,39.3-45.5,42.7
						s-42.3-7.5-53.6-26.7c-8.9,8.3-22.2,10.4-32.6,5.2S72.7,32.7,72.4,19.8c-19.9,14.4-47,13.5-65.8-2.2C-12,1.9-16-50.1-8.6-75.1
						C95.8-51.9,217.6-33.3,312.4-14.1z"/>
				</g>
			</g>
		</g>
	</g>
	<g id="Tanah">
		<g>
			<g>
				<defs>
					<rect id="SVGID_3_" y="303.1" width="355.7" height="189.7"/>
				</defs>
				<clipPath id="SVGID_4_">
					<use xlink:href="#SVGID_3_"  style="overflow:visible;"/>
				</clipPath>
				<g class="st10">
					<g id="tanah-2">
						<path class="st11" d="M323.2,363.4c-23.6,3.9-47.7,4.1-71.7,2.8c-0.7,0.2-1.4-0.3-1.6-1c-0.1-0.2,0-0.5,0-0.7
							c0.2-0.9,1-1.4,1.9-1.4c-0.4-0.5-0.3-1.1,0.2-1.5c0.2-0.2,0.5-0.3,0.8-0.2c0-0.7,0.2-1.4,0.7-1.9c0.7-0.8,1.8-1.2,2.8-0.9
							c0.3-1,1.4-1.6,2.4-1.2c0,0,0,0,0.1,0c0.6-0.9,1.7-1.1,2.6-0.5c0.2,0.1,0.3,0.2,0.4,0.4c1.1-0.7,2.5-0.6,3.4,0.2
							c0.5-0.8,1.4-1.5,2.4-1.7c0.7-0.2,1.5-0.2,2.2,0c-0.2-1.3,0.2-2.5,1.1-3.5c0.2-0.2,0.4-0.4,0.6-0.6c1.3-0.9,2.9-1,4.3-0.3
							c0.6-0.9,1.8-1.3,2.7-0.8c0.6-0.5,1.4-0.8,2.2-0.9c0-1.4,1.2-2.6,2.7-2.5c0.8,0,1.5,0.4,2,1c0.8-0.7,2-0.5,2.7,0.3
							c0.1,0.1,0.2,0.3,0.3,0.5c1.6-1,3.7-0.8,5.1,0.5c0.7-0.5,1.7-0.5,2.4,0.1c0.6-1.1,2-1.7,3.2-1.3c1.2,0.5,2,1.6,2.3,2.9
							c0.9,0.3,1.6,0.9,2,1.8c1.4-1.1,3.5-0.8,4.5,0.6c0.5,0.6,0.7,1.3,0.7,2.1c1.1-0.3,2.3,0.1,3,1.1c0.9-0.8,2.2-1,3.2-0.4
							c0.4,0.2,0.7,0.4,0.9,0.8c0.5,0.6,0.7,1.4,0.6,2.2c0.7-0.2,1.5,0.1,1.7,0.9c0,0,0,0,0,0.1c0.5-0.9,1.6-1.3,2.6-0.8
							c0.6,0.3,1,1,1,1.7c0.9,0,1.6,0.7,1.7,1.6c0,0.3-0.1,0.6-0.2,0.8L323.2,363.4z"/>
						<path class="st12" d="M88.3,371.5c19.8,1.3,39.7-0.6,59.4-3.6c0.6,0.1,1.2-0.3,1.2-0.9c0-0.2,0-0.4-0.1-0.6
							c-0.3-0.7-1-1.1-1.7-1c0.2-0.5,0.1-1-0.4-1.3c-0.2-0.1-0.3-0.1-0.5-0.1c0-0.6-0.3-1.2-0.8-1.5c-0.6-0.6-1.6-0.8-2.4-0.5
							c-0.4-0.8-1.3-1.2-2.1-0.8l0,0c-0.6-0.7-1.5-0.8-2.2-0.2c-0.1,0.1-0.2,0.2-0.3,0.3c-0.9-0.5-2.1-0.3-2.8,0.4
							c-0.5-0.7-1.3-1.1-2.1-1.2c-0.6-0.1-1.2,0-1.8,0.2c0-1.1-0.4-2.1-1.2-2.8c-0.2-0.2-0.4-0.3-0.6-0.4c-1.1-0.6-2.5-0.6-3.6,0.1
							c-0.5-0.7-1.5-0.9-2.3-0.4c-0.6-0.4-1.2-0.5-1.9-0.5c-0.2-1.2-1.2-2-2.4-1.9c-0.6,0.1-1.2,0.4-1.6,1c-0.7-0.5-1.7-0.3-2.2,0.4
							c-0.1,0.1-0.2,0.3-0.2,0.4c-1.4-0.7-3.2-0.4-4.2,0.9c-0.6-0.4,5-0.9,4.5-0.4c-0.6-0.9-8.3-0.5-9.3-0.1
							c-0.9,0.5-1.6,1.5-1.6,2.6c-0.7,0.3-1.3,0.9-1.5,1.6c-0.9-0.5-2-0.5-2.9,0.1s-1.3,1.6-1.2,2.6c-1-0.1-1.9,0.3-2.4,1.2
							c-0.8-0.6-1.9-0.6-2.7-0.1c-0.3,0.2-0.5,0.4-0.7,0.7c-0.3,0.5-0.4,1.2-0.3,1.8c-0.6-0.1-1.2,0.2-1.4,0.9v0.1
							c-0.5-0.7-1.5-0.9-2.2-0.4c-0.5,0.3-0.8,0.9-0.7,1.5c-0.7,0.1-1.3,0.7-1.2,1.5C88.2,371.1,88.3,371.3,88.3,371.5L88.3,371.5z"
							/>
						<path class="st13" d="M341.5,368.1c0.7-1.2,0.8-2.7,0.3-4c-0.4-1.1-1.6-1.8-2.8-1.5c-0.1-1.6-1.5-2.8-2.8-2.3
							c0.7-1.5,0.5-3.2-0.4-4.5c-0.9-1.1-2.5-1.2-3.6-0.2l0,0c-0.6-1.7-2.2-2.8-4-2.6c-1.9,0.5-3.4,1.9-3.9,3.7
							c-0.9-1.2-3-0.6-3.6,1.1c-0.7-1.1-2.1-1.6-3.3-1.1c-1.4,0.7-2.3,2-2.5,3.5c-2-0.9-4.8,1.3-5.1,4.1
							C318.5,365.8,327.4,366.9,341.5,368.1z"/>
						<path class="st8" d="M355.7,364.1v129.1H0V373.3C0,373.3,224.3,356.9,355.7,364.1z"/>
						<path class="st14" d="M307.9,406.7c13.4-7.5,30.9-16.1,47.8-23.6v12.1c-9.8,4.5-19.3,9.1-28.6,14
							c-36.9,19.4-70.1,42.5-98.4,76.6c-12.5-3.6-25.4-6-38.4-7.1c35.6-30.7,73.2-46.1,113.9-69.9
							C305.4,408.1,306.6,407.4,307.9,406.7z"/>
						<path class="st14" d="M355.7,365.5v9.6c-24,10.1-47,19.3-68.8,29.2l0,0c-40.4,18.2-77.2,38.4-110.8,70.4
							c-11.8,0.2-22.3,2.1-35.7,6.9c40.7-35.1,68.8-47.4,115.3-74.8c2.8-1.7,5.8-3.3,8.9-4.9c24.6-13,55.2-24,78.7-32.5L355.7,365.5
							z"/>
						<path class="st14" d="M355.7,407.7v21.6c-32,14.4-45.9,24.6-91.1,63.9l-0.6,0.5c-0.6-0.2-1.2-0.3-1.9-0.5
							c-11.2-2.8-16,0.4-28.3-0.7c35.6-30.7,60.6-50.4,101.3-74.2c4.3-2.3,8.3-4.4,12-6.3C350.2,410.5,353,409.1,355.7,407.7z"/>
						<path class="st14" d="M307,362.3l-14,4.3c-26.5,9.7-61.9,22.3-87.6,37.5c-46.5,27.4-74.6,39.7-115.2,74.8
							c13.5-4.8,23.9-6.7,35.7-6.9c56.7-53.9,122.4-74.6,199-107.8h-2L307,362.3z"/>
						<path class="st14" d="M251.3,362.3l-14,4.3c-26.5,9.7-61.9,22.3-87.6,37.5c-46.5,27.4-74.6,39.7-115.2,74.8
							c13.5-4.8,23.9-6.7,35.7-6.9c56.7-53.9,122.4-74.6,199-107.8c2.6-1.8-0.7-1.8-0.7-1.8L251.3,362.3z"/>
						<path class="st14" d="M204.6,364l-10.3,4.3C117.7,401.6,61,420.8,4.3,474.7c-1.4,0-2.9,0.1-4.3,0.2V457
							c26.2-18.4,50.2-30.4,83.9-50.2c25.7-15.2,61.1-27.8,87.6-37.5l14-4.3L204.6,364z"/>
						<path class="st14" d="M151.1,365.1l-3.5,1.8C93.1,390.5,44.1,407.8,0,435.2V423c8.7-4.9,18-10.2,28.2-16.2
							c25.7-15.2,61.1-27.8,87.6-37.5l10.4-3.2L151.1,365.1z"/>
						<path class="st14" d="M80.8,368.8l-3.5,1.8c-27.1,11.8-52.9,22-77.3,32.6v-12.9c15.9-6.5,31.9-12.3,45.5-17.3l10.4-3.2
							L80.8,368.8z"/>
						<path class="st9" d="M355.7,413.3v79.9H0v-97.4c0,0,109-9.4,264.5,6.1c7.4,0.7,14.8,1.5,22.4,2.4l0,0c6.9,0.8,13.9,1.6,21,2.5
							c6.4,0.8,12.8,1.6,19.2,2.5c6.6,0.9,13.3,1.8,20.1,2.8C350.1,412.5,352.9,412.9,355.7,413.3z"/>
					</g>
				</g>
			</g>
		</g>
	</g>
	<g id="Gubuk">
		<g>
			<g>
				<defs>
					<path id="SVGID_5_" d="M272.3,466.1L20,459.3c0,0-20.1-15-20.1-16.2C0.1,406,0,136.9,0,136.9h272.3V466.1z"/>
				</defs>
				<clipPath id="SVGID_6_">
					<use xlink:href="#SVGID_5_"  style="overflow:visible;"/>
				</clipPath>
				<g class="st15">
					<polygon class="st16" points="-115.9,428.6 22.9,409.6 270.8,415.9 117.8,456.1 					"/>
					<path class="st17" d="M232,417.3l-4.3-10.3l4.1,2.2l0.1-4.3l5.4,5.5l7.9-5.6l-0.3,4.2l4.3-4.3l-0.1,5.2l4-2.9l-3.1,9.4
						c-2.2,0.7-4.5,1.2-6.9,1.4C240.3,417.8,232,417.3,232,417.3z"/>
					<path class="st17" d="M32.3,415.5l-4.5-8.6l4.5,2.7l4.1-3.7v4l6.1-4.7l-1.4,5.7l4.5-5.7l-0.1,4.3l3.1-2.4l-2.4,7.8
						c-1.7,0.6-3.5,1-5.3,1.2C38.7,416,32.3,415.5,32.3,415.5z"/>
					<path class="st18" d="M-83.3,248.2c1.2,0.8,2.1,1.3,3.2,2c0.3,0.2,0.5,0.3,0.8,0.5c2.7-2.9,5.9-5.4,9.5-7.1
						c-1.6,4-2.7,8.2-3.3,12.5c3.7,0.3,6.8,0.6,10.6,0.8c0.3-1.2,2-2.9,2.3-4.1c2.8-0.3,5.6-0.5,8.4-0.4c1.3-2.5,2.8-5,4.5-7.3
						c0,0.2,0,0.5-0.1,0.7l0,0c-0.1,2.9,1.3,5.6,2.2,8.4l0,0c0,0.2,0.1,0.4,0.1,0.5c3.8,0.2,7.5,0.7,11.2,1.4
						c0.8,1.3,1.9,2.6,2.7,3.9c1.9,0.4,4.1-0.4,5.9-0.9c1-6.7,4-12.7,7.9-18.3l0.6-0.9c-1.3,3.7-1.1,7.6-0.6,11.5
						c0.1,0.7,0.1,1.4,0.2,2.1c2.4,0.3,5.4,0.6,7.8,0.8c0.6-0.8,1.9-2.1,2-3.1c3.8,0,7.6,0.4,11.3,1.1c1-3.6,3.6-7.4,5.8-10.5l0,0
						l0.1-0.1c-1.4,4-0.1,9.1,0.7,13.4c0.1,0.4,0.4,6.2,0.5,6.6c3.9,0.8,7.8-4.6,11.8-4.3c0.1-2.5,0.6-5,1.4-7.4
						c0.1,0.4,0.2,0.9,0.4,1.3l0,0c0.7,1.5,1.5,2.9,2.4,4.2c0.2,0.3,0.4,0.6,0.5,0.9c4-0.1,8.5-0.9,12.5-1.3c-0.6-2.8,0.4-5.2,0.8-8
						c7.9,0.1,15.7-0.6,23.5-1.9c0.3-3.4,1.9-6.2,3.4-9.3c0.2,0.6,0.3,1.1,0.5,1.7l0,0c1.3,3.9,2.9,7.8,4.6,11.5H73l0,0
						c2,0.2,4.9-0.4,6.9-0.7c-0.4-4.2,0.4-7.2,0.9-11.4c0,0.1,0,0.3,0,0.4v0.1c0.4,5.2,2.3,10,4.2,15c0.3,0.7,0.5,1.3,0.8,2l9.2-0.1
						c0.3-1.6,1.2-3.1,1.5-4.6c2.2,0,4.4-0.8,6.6-0.8c0.9-5.2,2.2-10.3,3.9-15.2v-0.1c0.1-0.3,0.2-0.6,0.3-0.9
						c-0.2,3.7,0.1,7.4,0.7,11.1c0,0.3,0.1,0.6,0.2,0.9c8.7,0.5,17.4,0.3,26-0.6c0.3-2.8,0.9-6.3,1.2-9.1c0.1,0.2,0.1,0.3,0.2,0.6
						v0.1c1.2,3.7,2.4,7.4,3.6,11.2c0.1,0.4,0.3,0.9,0.4,1.4c3.4,0.4,7.3,0.1,10.7,0.2c0.5-4.7,1.4-9.3,2.7-13.9
						c0.1,0.3,0.1,0.6,0.2,0.9l0,0v0.1c0.8,2.9,2.1,5.7,2.7,8.7c1.3,0.1,2.6,0.1,3.9,0l-0.6-31.1c0.7,1.6,1.5,3.3,2.2,4.9
						c-0.2-7-0.8-14-1.9-20.9c-0.2-1.5-0.4-3.6-0.7-5.7l-0.4-21c-43.7-0.2-95.3,3.4-138.3,7.9c-10.4,4.1-20.6,8.7-30.6,13.9
						c-6.8,2-13.6,4.4-20.1,7.1c2.4-0.2,4.8-0.2,7.2,0c1.3,0.1,2.7,0.2,4,0.4c-2.5,0.5-5.1,1.1-7.6,1.8
						c-16.2,4.5-31.6,13.4-44.2,23.9c7.2-3,14.2-5.8,21.3-8.7c-2.7,2-5.4,4-8,6C-67.6,230.4-75.4,237.4-83.3,248.2z"/>
					<path class="st17" d="M99.4,448.7l-8.9-17.1l9,5.3l8.1-7.5v8l11-10.1l-0.2,8.2l5.7-5.8l1.4,6.9l4.7-5.1l-3.2,15.8
						c0,0-6.9,2.2-10.5,2.3C112,449.7,99.4,448.7,99.4,448.7z"/>
					<path class="st18" d="M144.3,248.1c1.5-0.3,3.4-0.5,4.7,0.3c0.4-3,1.4-6,1.9-9c0.2,1.9,1.2,3.3,2.1,4.9c3.4,1.1,7,1.2,10.4,0.3
						c-0.6-2.2,0.1-4,0.2-6.3c1.5,3.7,4.7,6.6,7,10c2.4,0.8,5.4,0.2,7.9,0.1c-1.2-3.9-1.6-8.2-2.2-12.3c2.7,4,6.1,7.6,8.8,11.6
						c2-0.4,3.1-0.4,5.1-0.8c-1-2.9-2.4-5.7-4.3-8.2c6.3,3.1,11.2,8.6,14.9,14.4c2-0.5,3.5-1.6,5.5-2.1c-0.7-2.7-1.6-5.2-2.4-7.9
						c1,1.1,2.4,1.5,3.5,2.6c2-0.6,3.6-1.9,4.8-3.6c-3.7-5.4-7.6-10.7-11.9-15.7c6.7,6.2,13.6,12.4,19.3,19.4
						c0.9-0.2,1.9-0.8,2.8-0.9c-0.4-4.1-1.4-8-3-11.8c4.6,3.7,10.4,5.4,15.6,8.2c2.6-1.2,5.1-2.6,7.4-4.3l-9.2-12.1
						c7.1,4.6,13.9,9.7,20.3,15.3c1.8-0.1,3.1-1.6,4.7-2.5c-1.6-3.3-3.7-6.3-6.1-9.1c2.3,1.2,4.5,3,6.7,4.2c2-0.6,2.4-2.9,3.7-4.4
						c-15-12.5-35.7-23.8-57.2-33.1c9.8,2.5,19.3,5.6,28.6,9.4c-13.1-5.4-25-12-38.9-15.8c-4.4-1.3-8.9-2.2-13.4-2.8
						c-12.8-4.6-25.9-8.4-39.2-11.5C139.1,198.9,137.8,221.4,144.3,248.1z"/>
					<g id="bale">
						<polygon class="st19" points="99,399.2 105.1,445.7 113.4,445.7 117.8,399.2 						"/>
						<polygon class="st20" points="105.1,445.7 109.7,445.7 108.4,399.8 99,399.2 						"/>
						<polygon class="st19" points="232.6,383.6 237.3,416.6 244.8,416.6 249.4,383.6 						"/>
						<polygon class="st20" points="237.3,416.6 241.5,416.6 241,384.2 232.6,383.6 						"/>
						<polygon class="st19" points="31.9,376.6 36.4,412.1 43.3,412.1 47.6,376.6 						"/>
						<polygon class="st20" points="36.4,412.1 40.2,412.1 39.8,377 31.9,376.6 						"/>
						<polygon class="st21" points="-119.8,378.3 -119.8,384 114.2,402.6 115.6,395.9 						"/>
						<polygon class="st22" points="115.6,395.9 114.2,402.6 264.5,385.4 264.5,380.5 						"/>
						<polygon class="st23" points="-119.8,378.3 115.6,395.9 264.5,380.5 47,371.8 						"/>
						<polygon class="st24" points="-103.8,377.2 134.4,394 166.6,390.5 -78.3,376.1 						"/>
						<polygon class="st24" points="-15.6,375.1 206,386.7 238.2,383.2 9.9,374 						"/>
						<polygon class="st25" points="180.6,389.2 -42.1,375.3 -40.5,375.2 183.8,388.8 						"/>
					</g>
					<path class="st26" d="M32.3,415.9L31,410l3.1,4.2l3.2-6.6v3.7l2.8-2.8v5.7l4.4-5.6l-1.1,5.1l3.7-2v3.9c-1.8,0.6-3.7,1-5.6,1.3
						C39.4,417,32.3,415.9,32.3,415.9z"/>
					<path class="st26" d="M99.4,448.7L97,438.3l5.5,7.5l5.6-11.6v6.6l4.9-4.9v10l7.7-9.8l-1.9,9.1l6.6-3.5v7c0,0-7,2.2-9.9,2.3
						C111.9,450.7,99.4,448.7,99.4,448.7z"/>
					<path class="st26" d="M174.3,414.4l-1.9-8.1l4.3,5.8l4.4-9v5.1l3.7-3.8v7.8l6-7.6l-1.5,7l5.1-2.7v5.4c0,0-5.4,1.7-7.7,1.8
						C184,416,174.3,414.4,174.3,414.4z"/>
					<g id="tiang-2">
						<path class="st19" d="M97.2,225.3H108l4,166.9c-1.4,0.4-2.8,0.6-4.2,0.7c-1.7-0.1-3.5-0.3-5.2-0.7L97.2,225.3z"/>
						<path class="st20" d="M97.2,225.3h5.9l5.2,167.6c0,0-1.8-0.1-2.5-0.1s-3.1-0.5-3.1-0.5L97.2,225.3z"/>
						<path class="st19" d="M32.4,244.5h7.5L42.7,374c-0.9,0.3-1.9,0.5-2.9,0.6c-1.2-0.1-2.4-0.3-3.6-0.6L32.4,244.5z"/>
						<path class="st20" d="M32.4,244.5h4.2l3.6,130c0,0-1.3-0.1-1.8-0.1c-0.5-0.1-2.2-0.4-2.2-0.4L32.4,244.5z"/>
						<path class="st19" d="M230.7,222.2h10.5l3.9,158.4c-1.3,0.4-2.7,0.6-4,0.7c-1.7-0.1-3.4-0.3-5-0.7L230.7,222.2z"/>
						<path class="st20" d="M230.7,222.2h5.7l5,159.1c0,0-1.8-0.1-2.4-0.1c-0.7-0.1-3.1-0.5-3.1-0.5L230.7,222.2z"/>
					</g>
					<path class="st27" d="M22.8,249c-1.5-0.1-3.5-0.1-4.6,0.8c-0.7-3-2-5.8-2.8-8.8c-0.1,1.9-0.9,3.4-1.6,5.1
						c-3.2,1.4-6.8,1.9-10.3,1.3c0.4-2.2-0.5-4-0.8-6.2c-1.2,3.9-4,7.1-6,10.6c-2.4,1-5.3,0.7-7.9,0.9c0.8-4,0.7-8.4,1-12.4
						c-2.3,4.2-5.4,8.2-7.6,12.4c-2-0.2-3.1-0.1-5.2-0.3c0.7-3,1.8-5.9,3.4-8.6c-6,3.7-10.3,9.7-13.4,15.8c-2.1-0.3-3.7-1.2-5.7-1.5
						c0.5-2.7,1.1-5.4,1.6-8.1c-0.9,1.2-2.3,1.7-3.2,2.9c-2-0.4-3.8-1.5-5.1-3.1c3.1-5.8,6.6-11.4,10.3-16.8
						c-6,6.8-12.3,13.7-17.3,21.3c-0.9-0.1-1.9-0.6-2.8-0.7c0-4.1,0.7-8.2,1.9-12.1c-4.3,4.1-9.9,6.4-14.8,9.7
						c-2.7-0.9-5.3-2.1-7.8-3.5c2.5-4.1,5.3-8.8,7.9-13c-6.6,5.3-12.9,11.1-18.7,17.2c-1.8,0.1-3.3-1.2-4.9-2c1.3-3.4,3-6.7,5.2-9.6
						c-2.1,1.4-4.2,3.4-6.3,4.8c-2-0.4-2.7-2.6-4.2-4c13.7-14,33.2-27.3,53.6-38.6c-9.4,3.4-18.6,7.5-27.5,12.1
						c12.5-6.7,23.7-14.4,37.1-19.5c4.2-1.7,8.6-3.1,13-4.1c12.3-5.9,24.9-11,37.8-15.3C23.1,199.5,26.7,221.7,22.8,249z"/>
					<path class="st28" d="M265.4,228.8c-1.1,0.9-2,1.5-3,2.3c-0.2,0.2-0.5,0.4-0.8,0.6c-3-2.7-6.4-4.8-10.1-6.2
						c2,3.9,3.5,7.9,4.5,12.2c-3.7,0.6-6.7,1.2-10.5,1.9c-0.4-1.2-2.2-2.7-2.7-3.9c-2.8-0.1-5.6,0.1-8.4,0.4
						c-1.6-2.4-3.3-4.7-5.2-6.8c0.1,0.2,0.1,0.5,0.1,0.7l0,0c0.4,2.9-0.7,5.7-1.3,8.6l0,0c0,0.2-0.1,0.4-0.1,0.5
						c-3.7,0.6-7.5,1.5-11.1,2.5c-0.6,1.4-1.7,2.7-2.3,4.1c-1.8,0.6-4.2,0-6-0.4c-1.7-6.6-5.2-12.2-9.7-17.5
						c-0.2-0.3-0.4-0.5-0.7-0.8c1.6,3.5,1.8,7.5,1.8,11.3c0,0.7,0,1.4,0,2.1c-2.3,0.5-5.3,1.1-7.7,1.6c-0.7-0.7-2.1-1.9-2.2-2.9
						c-3.8,0.4-7.5,1.1-11.2,2.2c-1.4-3.5-4.3-7-6.8-9.8l0,0l-0.1-0.1c1.7,3.9,1,9,0.7,13.4c0,0.5-0.1,0.9-0.1,1.4
						c-3.7,1.1-8,1.5-11.9,2.2c-0.3-2.5-1.1-5-2.1-7.3c0,0.5-0.1,0.9-0.2,1.3l0,0c-0.5,1.5-1.1,3-1.9,4.4c-0.1,0.3-0.3,0.7-0.4,1
						c-4,0.3-8.6,0-12.6,0c0.3-2.8-0.9-5.1-1.6-7.9c-7.8,0.8-15.7,1-23.5,0.4c-0.7-3.3-2.5-6-4.3-8.9c-0.1,0.6-0.2,1.2-0.4,1.7l0,0
						c-1,4-2.1,8-3.5,11.9H110l0,0c-2,0.4-5,0-6.9,0c0-4.2-1.1-7.1-2-11.2c0,0.1,0,0.3,0,0.4l0,0c0.1,5.2-1.3,10.2-2.7,15.3
						c-0.2,0.7-0.4,1.4-0.6,2.1l-9.1,0.8c-0.4-1.5-1.5-2.9-2-4.5c-2.2,0.3-4.5-0.4-6.7-0.1c-1.4-5-3.2-10-5.3-14.8v-0.1
						c-0.1-0.3-0.3-0.6-0.4-0.9c0.5,3.7,0.7,7.4,0.4,11.1c0,0.3,0,0.6-0.1,0.9c-8.6,1.3-17.3,2-26.1,2c-0.6-2.8-1.6-6.2-2.1-8.9
						c0,0.2-0.1,0.4-0.1,0.6v0.1c-0.8,3.8-1.7,7.6-2.5,11.5c-0.1,0.5-0.2,0.9-0.3,1.4c-3.3,0.7-7.3,0.8-10.7,1.2
						c-1-4.6-2.4-9.2-4-13.6c0,0.3-0.1,0.6-0.1,0.9l0,0v0.1c-0.5,3-1.6,5.9-1.9,8.9c-1.3,0.2-2.6,0.3-3.9,0.4l-2.4-31l-1.6,5.1
						c-0.5-7-0.5-14-0.2-21c0.1-1.5,0-3.6,0.1-5.8l-1.6-20.8c43.4-4.5,95.1-6.1,138.4-5.9c10.8,3,21.4,6.6,31.8,10.8
						c7,1.3,13.9,3,20.7,5.1c-2.4,0.1-4.8,0.3-7.2,0.7c-1.3,0.2-2.6,0.5-4,0.7c2.6,0.2,5.2,0.6,7.8,1c16.6,2.9,32.8,10.1,46.4,19.4
						c-7.5-2.3-14.7-4.4-22-6.5c2.9,1.7,5.7,3.4,8.6,5.2C248.1,212.7,256.5,218.9,265.4,228.8z"/>
					<path class="st29" d="M50.9,199.7c3,7.7,5.5,15.6,8,23.4c0.9-7.3,1-14.6,0.4-21.9l7.2,16.3c-0.1-14.2-5.8-28.3-16.2-39.6
						l2.4,13.6c-4.8-5.2-10.4-9.6-16.6-13C43.9,183.3,48.1,192.5,50.9,199.7z"/>
					<path class="st29" d="M158.2,219.4c-0.8-8.3-3.6-16.3-8.1-23.4c6.5,5.7,12.5,12,17.9,18.7c-4.8-15.9-16.6-29.7-31.9-37.5
						c2.6,3.3,5,6.8,7.1,10.4c-6-6-12.7-12.4-21.4-13.5c3.5,0.5,7.1,6,9.5,8.3c3.7,3.6,7.5,7.1,10.8,11.1
						C148.8,201.4,154.2,210.1,158.2,219.4z"/>
					<path class="st29" d="M178.8,207.1c-8.7-11.4-19.3-21.2-31.4-29c7.5,0.7,14.6,3.9,20,9.1C173.2,192.4,177.7,199.6,178.8,207.1z
						"/>
					<path class="st29" d="M212.1,218.8c-4.6-8.4-11.3-15.6-19.3-20.9c9.3,2.7,18.1,7,26,12.7c-3.7-1.8-7.6-3-11.6-3.7
						c6.4,7.4,13,15.3,14.1,24.9C219.2,227.1,214.5,223.2,212.1,218.8z"/>
					<path class="st29" d="M174.5,197.2c-4.6-8.4-11.3-15.6-19.3-20.9c9.3,2.7,18.1,7,26,12.6c-3.7-1.8-7.6-3-11.6-3.6
						c6.4,7.4,13,15.3,14.1,24.8C181.5,205.5,176.9,201.6,174.5,197.2z"/>
					<path class="st29" d="M136.6,225.5c-0.5-6.4-5.7-14.5-8.5-20.3c-3.2-6.8-7.3-13.2-10.7-20C133.5,189.6,135.6,212.5,136.6,225.5
						z"/>
					<path class="st29" d="M86.8,194.4l-9.2-4.5c7.2,6.1,11.7,13.8,16,21.3l0.1-12.1c4.6,6,8.7,12.4,12.1,19.2
						c-1.7-11-7-21.5-13.9-31.1c-1.8-2.7-4.1-5.2-6.7-7.2c-3-2.2-6.6-3.4-10.4-3.5c2.8,2.1,5.3,4.4,7.7,6.9
						c-0.7-0.8-4.2-1.6-5.5-2.2C79.2,185.9,84.4,189.7,86.8,194.4z"/>
					
						<linearGradient id="SVGID_7_" gradientUnits="userSpaceOnUse" x1="733.9295" y1="471.5682" x2="730.079" y2="392.2176" gradientTransform="matrix(0.9988 -4.972137e-02 4.972137e-02 0.9988 -716.4733 -149.7491)">
						<stop  offset="0" style="stop-color:#DB6034"/>
						<stop  offset="1" style="stop-color:#FB8830"/>
					</linearGradient>
					<path class="st30" d="M43.6,249.5c-0.1,0.5-0.2,0.9-0.3,1.4c-3.3,0.7-7.3,0.8-10.7,1.2c-1-4.6-2.4-9.2-4-13.6
						c0,0.3-0.1,0.6-0.1,0.9c-0.5-6.3-0.9-12.7-1.4-19c1.2,4.9,2.4,9.9,3.6,14.8c1.1,4.7,1.6,9.8,3.3,14.4c0.9-0.2,1.8-0.2,2.7-0.1
						c0.1-0.9,0.3-1.8,0.4-2.7c0.6,0.6,0.3,1.9,1,2.3c0.2,0.1,0.5,0.1,0.7,0.1L43.6,249.5z"/>
					
						<linearGradient id="SVGID_8_" gradientUnits="userSpaceOnUse" x1="758.3493" y1="470.5093" x2="754.4988" y2="391.0463" gradientTransform="matrix(0.9988 -4.972137e-02 4.972137e-02 0.9988 -716.4733 -149.7491)">
						<stop  offset="0" style="stop-color:#DB6034"/>
						<stop  offset="1" style="stop-color:#FB8830"/>
					</linearGradient>
					<path class="st31" d="M74.4,243.4c0,0.3,0,0.6-0.1,0.9c-8.6,1.4-17.3,2-26,2.1c-0.6-2.8-1.6-6.2-2.1-8.9c0,0.2-0.1,0.4-0.1,0.6
						c-0.1-2.5-0.2-5-0.3-7.4c-0.1-2.5,0.3-5.7-0.4-8.1c2.1,6.9,4.2,13.7,6.2,20.5c0.1,0.3,0.2,0.6,0.5,0.8c0.2,0.1,0.5,0.2,0.7,0.1
						l10,0.2c0.1-1.5,0.1-3.1,0-4.6l1.5,3.9C67.7,243.1,71.1,243.1,74.4,243.4z"/>
					
						<linearGradient id="SVGID_9_" gradientUnits="userSpaceOnUse" x1="783.462" y1="469.3371" x2="779.6116" y2="389.8929" gradientTransform="matrix(0.9988 -4.972137e-02 4.972137e-02 0.9988 -716.4733 -149.7491)">
						<stop  offset="0" style="stop-color:#DB6034"/>
						<stop  offset="1" style="stop-color:#FB8830"/>
					</linearGradient>
					<path class="st32" d="M98.2,249.8c-0.2,0.7-0.4,1.4-0.6,2.1l-9.1,0.8c-0.4-1.5-1.5-2.9-2-4.5c-2.2,0.3-4.5-0.4-6.7-0.1
						c-1.4-5-3.2-10-5.3-14.8v-0.1c-0.1-0.6-0.2-1.2-0.4-1.7c-0.4-1.8-0.8-3.5-1.2-5.3c-0.3-1.4-0.3-3.7-1.1-4.9
						c2.7,4,4.3,8.6,5.9,13.1c0.9,2.5,1.7,5,2.6,7.5c0.2,0.9,0.7,1.7,1.3,2.4c1.2,1.1,3.1,1.1,4.8,1c-0.2-4.8-0.7-9.6-1.5-14.3
						c1.7,6,3.3,12.1,5,18.1L98.2,249.8z"/>
					
						<linearGradient id="SVGID_10_" gradientUnits="userSpaceOnUse" x1="803.0544" y1="468.3898" x2="799.204" y2="389.0205" gradientTransform="matrix(0.9988 -4.972137e-02 4.972137e-02 0.9988 -716.4733 -149.7491)">
						<stop  offset="0" style="stop-color:#DB6034"/>
						<stop  offset="1" style="stop-color:#FB8830"/>
					</linearGradient>
					<path class="st33" d="M109.8,245.3c-2,0.4-5,0-6.9,0c0-4.2-1.1-7.1-2-11.2c0,0.1,0,0.3,0,0.4c-0.7-5.2-1.6-10.4-1.9-15.6
						c1.3,1.4,1.8,3.4,2.2,5.2c1.4,6.4,3.1,12.8,4.9,19.2c0.1,0.3,0.2,0.6,0.4,0.9c0.3,0.2,0.6,0.4,0.9,0.5L109.8,245.3z"/>
					
						<linearGradient id="SVGID_11_" gradientUnits="userSpaceOnUse" x1="831.7421" y1="467.1441" x2="827.8824" y2="387.6625" gradientTransform="matrix(0.9988 -4.972137e-02 4.972137e-02 0.9988 -716.4733 -149.7491)">
						<stop  offset="0" style="stop-color:#DB6034"/>
						<stop  offset="1" style="stop-color:#FB8830"/>
					</linearGradient>
					<path class="st34" d="M156.3,247c-0.1,0.3-0.3,0.7-0.4,1c-4,0.3-8.6,0-12.6,0c0.3-2.8-0.9-5.1-1.6-7.9
						c-7.8,0.8-15.7,1-23.5,0.4c-0.7-3.3-2.5-6-4.3-8.9c-0.1,0.6-0.2,1.2-0.4,1.7c-1.1-6.5-2.1-13.1-3.1-19.6
						c-0.6-3.7-1.5-7.7-1.7-11.5c4,11.2,7.7,22.5,11.1,33.8c1.9,0.1,3.8,0.5,5.6,0.9c0.3-1.1,0.6-2.2,0.9-3.4
						c0.1,1.4,0.2,2.8,0.6,4.2c3.3-0.4,6.7-0.5,10-0.2c-0.1-1.6-0.1-3.2,0.1-4.8c0.5,1.8,1.2,3.5,2.1,5.1c0.8-0.4,1.8-0.7,2.7-0.6
						c-0.3-2-0.6-4-0.7-6c2.2,4.6,3.9,9.5,5.2,14.4C149.6,245.8,153,246.2,156.3,247z"/>
					
						<linearGradient id="SVGID_12_" gradientUnits="userSpaceOnUse" x1="862.0509" y1="465.6376" x2="858.2005" y2="386.2964" gradientTransform="matrix(0.9988 -4.972137e-02 4.972137e-02 0.9988 -716.4733 -149.7491)">
						<stop  offset="0" style="stop-color:#DB6034"/>
						<stop  offset="1" style="stop-color:#FB8830"/>
					</linearGradient>
					<path class="st35" d="M169.9,245.5c0.8-0.3,1.7-0.5,2.5-0.6c0,0.5-0.1,0.9-0.1,1.4c-3.7,1.1-8,1.5-11.9,2.2
						c-0.3-2.5-1.1-5-2.1-7.3c0,0.5-0.1,0.9-0.2,1.3c-0.3-1.9-0.7-3.7-1.1-5.5c-0.5-2.4-0.3-5.5-1-7.9c2,5.7,3.9,11.4,5.9,17.1
						c2.6-0.1,5.1-0.3,7.7-0.4c-0.3-0.8-0.5-1.6-0.4-2.4L169.9,245.5z"/>
					
						<linearGradient id="SVGID_13_" gradientUnits="userSpaceOnUse" x1="873.4804" y1="465.1223" x2="869.6299" y2="385.7811" gradientTransform="matrix(0.9988 -4.972137e-02 4.972137e-02 0.9988 -716.4733 -149.7491)">
						<stop  offset="0" style="stop-color:#DB6034"/>
						<stop  offset="1" style="stop-color:#FB8830"/>
					</linearGradient>
					<path class="st36" d="M176.6,245.2c0,0.1-0.1,0.1-0.1,0.2c0-0.1,0-0.2-0.1-0.3L176.6,245.2z"/>
					
						<linearGradient id="SVGID_14_" gradientUnits="userSpaceOnUse" x1="873.4804" y1="465.1223" x2="869.6299" y2="385.7811" gradientTransform="matrix(0.9988 -4.972137e-02 4.972137e-02 0.9988 -716.4733 -149.7491)">
						<stop  offset="0" style="stop-color:#DB6034"/>
						<stop  offset="1" style="stop-color:#FB8830"/>
					</linearGradient>
					<path class="st37" d="M176.6,245.2c0,0.1-0.1,0.1-0.1,0.2c0-0.1,0-0.2-0.1-0.3L176.6,245.2z"/>
					
						<linearGradient id="SVGID_15_" gradientUnits="userSpaceOnUse" x1="881.9849" y1="464.7927" x2="878.1251" y2="385.311" gradientTransform="matrix(0.9988 -4.972137e-02 4.972137e-02 0.9988 -716.4733 -149.7491)">
						<stop  offset="0" style="stop-color:#DB6034"/>
						<stop  offset="1" style="stop-color:#FB8830"/>
					</linearGradient>
					<path class="st38" d="M199.9,238.5c0,0.7,0,1.4,0,2.1c-2.3,0.5-5.3,1.1-7.7,1.6c-0.7-0.7-2.1-1.9-2.2-2.9
						c-3.8,0.4-7.5,1.1-11.2,2.2c-1.4-3.5-4.3-7-6.8-9.8l0,0c-1.9-4.4-3.9-8.7-5.1-13.4c4.1,6.3,7.8,13,11,19.8
						c3.7-0.6,7.5-0.9,11.2-1c-0.6-2.3-1-4.7-1.1-7.1c0.9,3.3,2.2,6.5,3.9,9.5l3.7-0.5c-0.3-1.1-0.4-2.2-0.3-3.4
						c0.5,1.4,0.9,2.7,1.4,4.1C197.6,239.1,198.7,238.6,199.9,238.5z"/>
					
						<linearGradient id="SVGID_16_" gradientUnits="userSpaceOnUse" x1="907.3469" y1="463.5855" x2="903.4965" y2="384.1694" gradientTransform="matrix(0.9988 -4.972137e-02 4.972137e-02 0.9988 -716.4733 -149.7491)">
						<stop  offset="0" style="stop-color:#DB6034"/>
						<stop  offset="1" style="stop-color:#FB8830"/>
					</linearGradient>
					<path class="st39" d="M228,238.6L228,238.6c0,0.2-0.1,0.4-0.1,0.5c-3.7,0.6-7.5,1.5-11.1,2.5c-0.6,1.4-1.7,2.7-2.3,4.1
						c-1.8,0.6-4.2,0-6-0.4c-1.7-6.6-5.2-12.2-9.7-17.5c-1.2-2.7-2.6-5.4-3.9-8.1c-0.9-1.9-2-3.8-3-5.7c-0.6-1.2-1.9-4.7-3-5.3
						c1.7,1,3.1,2.3,4.3,3.9c7.1,8.8,12.3,18.7,17.4,28.7c0.5-1.5,3.1-1.6,3.7-0.2c0.5-1.7,0.5-3.5-0.1-5.2c0.4,1,1,2,1.6,2.9
						c0.2,0.3,0.4,0.5,0.7,0.6c0.5,0.1,1,0.1,1.4-0.1c2.7-0.9,5.5-1.4,8.4-1.5c0.4-0.1,0.9,0,1.2,0.2
						C227.7,238.2,227.9,238.4,228,238.6z"/>
					
						<linearGradient id="SVGID_17_" gradientUnits="userSpaceOnUse" x1="941.3093" y1="462.0334" x2="937.4587" y2="382.5611" gradientTransform="matrix(0.9988 -4.972137e-02 4.972137e-02 0.9988 -716.4733 -149.7491)">
						<stop  offset="0" style="stop-color:#DB6034"/>
						<stop  offset="1" style="stop-color:#FB8830"/>
					</linearGradient>
					<path class="st40" d="M261.7,231.7c-3-2.7-6.4-4.8-10.1-6.2c2,3.9,3.5,7.9,4.5,12.2c-3.7,0.6-6.7,1.2-10.5,1.9
						c-0.4-1.2-2.2-2.7-2.7-3.9c-2.8-0.1-5.6,0.1-8.4,0.4c-1.6-2.4-3.3-4.7-5.2-6.8c0.1,0.2,0.1,0.5,0.1,0.7c-1-2.1-2-4.2-3-6.3
						c-1.1-2.3-1.9-5.7-3.6-7.7c4.6,5.6,8.8,11.5,12.5,17.8c2.4-0.4,4.8-0.4,7.1-0.1c-1-1.4-1.4-3-1.3-4.7l4.6,7.1
						c0.2,0.3,0.4,0.6,0.7,0.7c0.3,0.1,0.6,0.1,0.9,0.1l6.4-0.4c-2.2-5.6-4.3-11.3-6.1-17.1c4.9,3.3,9.6,6.9,14.1,10.9
						c0.2,0.2,0.5,0.4,0.7,0.7C262.2,231.3,262,231.5,261.7,231.7z"/>
					<path class="st26" d="M232.5,418.4l-1.6-7.1l3.6,3.3l4-6.2v4.4l3.3-3.3l1,4.5l4.2-4.4l-0.1,5.5l3.3-1.8v4.7
						c0,0-4.7,1.5-6.7,1.5C241,419.7,232.5,418.4,232.5,418.4z"/>
				</g>
			</g>
		</g>
	</g>
	<g id="Orang">
		<path id="Bayangan_x5F_Tanah" class="st16" d="M226.4,454.7c0.1,4.8-22.7,5.2-43.8,1c-16.8-3.3-34.2-9.7-30.4-12
			c9.9-5.9,19.7-8.4,41.2-8.9S226.2,449.9,226.4,454.7z"/>
		<path id="Bayangan_x5F_Papan" class="st41" d="M196.3,384.4c0.1,4.8-26.2,12-47.7,12.5s-33.6-7.8-30.3-10.7
			c8.6-7.6,19.2-6.3,40.8-6.8S196.2,379.6,196.3,384.4z"/>
		<g id="Badan">
			<path class="st42" d="M209.2,338.2c-3.3-0.4-7.6-7.8-7.6-7.8s-2.7-11.9-3.5-15c-0.3-0.9-0.7-1.7-1.2-2.5c-1.9-3-3.4-6-6.6-7.7
				l-13-5.1l0,0l-12.1-2.2l-4.6,1.3c0,0-10.5,3.1-12,5.7s6.1,25.4,6.1,25.4s-2.8,30.8-3.7,34.9s-4.4,10-4.4,10l7.2-10.8
				c2.6-3.4,8.3-5,12.4-5l31.3-0.6l-2.2-13.3c0,0,4.2,3.3,5.8,3.9c6.6,2.6,27.7,4.3,27.7,4.3s4.7-9.7,5.1-9.9
				C234.3,343.7,209.2,338.2,209.2,338.2z"/>
			<path class="st43" d="M158.3,300.4c-0.4-1.1-5.5,1.9-5.5,1.9s7.2,23.2,6.6,29.6c-0.4,3.4-2.6,2.5-5.1-4.7
				c-0.6-1.8,1.4,12.1-3.4,26.7c-4.5,13.7-3.6,21.3-2.7,18.8l50.9,0.9c0,0-4.8-57.8-11.4-69.5c-0.4-0.8-4.2-1.7-4-1.3
				c2.2,4.7,2.8,9.3,1.9,16.3c-0.4,3.5-10.7,7.3-17.4,1C165.2,317.6,159.8,304.9,158.3,300.4z"/>
			<path class="st44" d="M161.2,325.6c0.7,0.7,1.4,1.4,2.3,1.9c0.8,0.4,1.7,0.5,2.6,0.2c0.4-0.1,0.8-0.4,1.1-0.7
				c0.3-0.3,0.6-0.7,0.7-1.1c0.3-0.9,0.5-1.9,0.5-3c0.4,1,0.5,2.1,0.2,3.2c-0.1,0.6-0.4,1.1-0.8,1.5c-0.4,0.4-0.9,0.7-1.5,0.9
				c-1.1,0.4-2.4,0.2-3.3-0.5C162.3,327.4,161.6,326.6,161.2,325.6z"/>
			<path class="st45" d="M165.2,325.5L165.2,325.5c-0.7-0.1-1.2-0.6-1.4-1.2c-0.2-0.8,0.3-1.7,1.1-1.9h0.1c0.6,0.1,1.2,0.6,1.3,1.2
				C166.6,324.4,166.1,325.2,165.2,325.5L165.2,325.5z"/>
			<path class="st44" d="M187.8,320.1c0.1,0.4,0.4,0.8,0.7,1.2c0.3,0.3,0.7,0.5,1.1,0.4c0.4,0,0.8-0.1,1.1-0.4
				c0.3-0.4,0.4-0.8,0.4-1.3c0.2,0.5,0.2,1-0.1,1.5c-0.2,0.2-0.4,0.4-0.6,0.5c-0.3,0.1-0.5,0.1-0.8,0.1c-0.5,0-1.1-0.2-1.4-0.7
				C187.9,321.1,187.8,320.6,187.8,320.1z"/>
			<path class="st45" d="M189.7,320.3L189.7,320.3c-0.5-0.1-0.8-0.4-0.9-0.8c-0.2-0.6,0.1-1.2,0.6-1.4l0,0c0.4,0.1,0.8,0.4,0.9,0.9
				C190.5,319.5,190.2,320.1,189.7,320.3z"/>
			<path class="st44" d="M166.7,337.9c0,0,17.9,2.4,24.6-4.2l2.1,23c0,0-1.7,6-10.2,7.2s-14.3-5.2-14.3-5.2L166.7,337.9z"/>
			<path class="st46" d="M168.7,340.7l-0.1-1.3h0.3l0.9,0.1v0.5l-0.7-0.1l0.1,0.7L168.7,340.7z"/>
			<path class="st46" d="M176.4,340.3h-1v-0.5h1.1h0.7v0.5H176.4z M179,340.2v-0.5c0.6-0.1,1.2-0.1,1.9-0.2l0.1,0.5
				C180.3,340.1,179.7,340.1,179,340.2L179,340.2z M173.5,340.3c-0.7,0-1.3,0-1.9-0.1v-0.5c0.5,0,1.2,0.1,1.9,0.1V340.3z
				 M182.7,339.7l-0.1-0.5c0.6-0.1,1.2-0.3,1.8-0.4l0.1,0.5C184,339.4,183.3,339.6,182.7,339.7L182.7,339.7z M186.3,338.7l-0.2-0.5
				c0.6-0.2,1.1-0.5,1.6-0.7l0.2,0.4C187.5,338.2,186.9,338.5,186.3,338.7L186.3,338.7z"/>
			<path class="st46" d="M190,337.1v-0.5c-0.1,0.1-0.3,0.2-0.4,0.3l-0.3-0.4c0.2-0.2,0.5-0.4,0.7-0.6l0.4-0.4l0.1,1.5L190,337.1z"/>
			<path class="st46" d="M182,362.6v-0.5c0.4,0,0.8-0.1,1.2-0.1l0.8-0.1l0.1,0.5l-0.8,0.1C182.8,362.6,182.4,362.6,182,362.6z
				 M180,362.5c-0.7-0.1-1.3-0.2-2-0.3l0.1-0.5c0.6,0.2,1.2,0.3,1.9,0.3V362.5z M186,361.8l-0.2-0.4c0.6-0.2,1.2-0.5,1.8-0.8
				l0.2,0.4C187.2,361.3,186.6,361.6,186,361.8L186,361.8z M176.1,361.6c-0.6-0.2-1.2-0.5-1.8-0.9l0.2-0.4c0.6,0.3,1.2,0.6,1.8,0.8
				L176.1,361.6z M189.5,360l-0.3-0.4c0.5-0.4,1-0.9,1.3-1.4l0.4,0.3C190.5,359,190,359.5,189.5,360L189.5,360z M172.6,359.7
				c-0.5-0.4-1.1-0.8-1.5-1.3l0.3-0.4c0.5,0.4,1,0.9,1.5,1.2L172.6,359.7z M191.9,356.8l-0.4-0.2c0.1-0.2,0.2-0.4,0.2-0.6l-0.1-1.2
				h0.5l0.1,1.3l0,0C192.2,356.3,192.1,356.5,191.9,356.8L191.9,356.8z M170.4,356.5l-0.2-2l0.5-0.1l0.2,2L170.4,356.5z
				 M191.4,352.8l-0.2-2h0.5l0.2,2H191.4z M170,352.5l-0.2-2l0.5-0.1l0.2,2L170,352.5z M191.1,348.9l-0.2-2h0.5l0.2,2H191.1z
				 M169.6,348.6l-0.2-2l0.5-0.1l0.2,2L169.6,348.6z M190.7,344.9l-0.2-2h0.5l0.2,2H190.7z M169.1,344.7l-0.2-2l0.5-0.1l0.2,2
				L169.1,344.7z M190.4,341l-0.2-2h0.5l0.2,2H190.4z"/>
			<path class="st47" d="M159.3,330.3c0,0,0.2,3-1.2,3.2c-0.5,0.1-1.5,1-3.3-4.5s0.7,11.7-3,22.7c-3.1,9.2-4.9,22.2-4.9,22.2
				s3.8-13.3,6-15.9C157.4,352.6,159.3,330.3,159.3,330.3z"/>
			<path class="st48" d="M155.6,323.5l-0.8,4.8c0,0.1,0,0.1,0,0.2c0.3,0.8,1.5,5.6,3.4,5.4c0,0,1.5,0.5,1.1-3.1
				c-0.3-2.3-0.7-4.6-1.2-6.9v-0.1l-0.8-1.4C156.7,321.4,155.8,322.4,155.6,323.5z"/>
			<path class="st49" d="M207.4,338c0.3-0.1,0.6-0.1,0.9-0.1c-0.4-0.1-0.8-0.2-1.2-0.2c-0.4-0.4-0.9-0.7-1.4-0.9
				c-0.7-0.3-1.5-0.3-2.2-0.2c-0.7,0.1-1.4,0.4-2,0.9c-0.3,0.2-0.6,0.4-0.8,0.7c-0.2,0.3-0.5,0.5-0.7,0.8c0.3-0.2,0.6-0.3,0.9-0.5
				l0.9-0.5c0.6-0.3,1.2-0.5,1.8-0.6c1-0.2,2-0.1,2.8,0.3c-0.6,0-1.2,0.1-1.7,0.3c-1.2,0.4-2.2,1.1-3,2s-1.3,2-1.7,3.1
				c-0.1,0.6-0.3,1.1-0.3,1.7s0,1.2,0,1.7c0.3-0.5,0.4-1,0.6-1.6l0.6-1.5c0.5-0.9,1-1.8,1.7-2.6C204,339.2,205.6,338.3,207.4,338
				L207.4,338L207.4,338z"/>
			<path class="st50" d="M216,333.9l-11.8,21.9l-30.4,1.4v1.4l29.4-0.9l0.9-0.1l31.1-0.7l6-11l7.7-11.7c0.3-0.5,0.2-1.2-0.3-1.6
				c-0.2-0.1-0.4-0.2-0.6-0.2l-31,0.9C216.6,333.3,216.2,333.5,216,333.9z"/>
			<path class="st51" d="M227.4,344.7c-0.4,0.6-0.2,1.4,0.4,1.8s1.4,0.2,1.8-0.4c0.4-0.5,0.3-1.3-0.2-1.7
				C228.7,343.9,227.8,344,227.4,344.7z"/>
			<path class="st52" d="M241.3,345.9c0,0,1.6,1.4,1.4,2.7c-0.2,1.3-0.1,2.2-1.3,2.3c0.1,0.9-0.6,1.8-1.6,1.9
				c0.2,1.1-0.5,2.1-1.6,2.3c-0.1,0-0.2,0-0.3,0c0,0-0.6,2.1-2.1,1.6c-0.8-0.3-1.6-0.6-2.4-1L233,355c0,0-2.1-0.7-1.6-1.9
				c0.3-0.7,1.4-0.9,1.4-0.9c-0.3-0.6-0.2-1.3,0.1-1.9c0.5-0.7,2.1-0.2,2.1-0.2c0-0.6,0.1-1.2,0.5-1.6c0.5-0.7,3.2,1.1,3.2,1.1
				l1.4-1.7L241.3,345.9z"/>
			<path class="st53" d="M238,355.1c-0.9-0.4-1.8-0.8-2.7-1.4c-0.9-0.5-1.7-1-2.5-1.6C234.6,352.9,236.3,353.9,238,355.1L238,355.1z
				"/>
			<path class="st53" d="M239.8,352.8c-0.9-0.3-1.7-0.7-2.5-1.2c-0.8-0.4-1.6-0.9-2.3-1.5c0.9,0.3,1.7,0.7,2.5,1.2
				C238.3,351.7,239.1,352.2,239.8,352.8z"/>
			<path class="st53" d="M237.1,348.6c0.8,0.3,1.5,0.6,2.2,1.1c0.7,0.4,1.4,0.8,2.1,1.3c-0.8-0.2-1.6-0.5-2.2-1
				C238.4,349.6,237.7,349.1,237.1,348.6z"/>
			<path class="st54" d="M249,333.3h-0.1h-0.4l-1.7,0.1l-6.2,0.2l-20.4,0.5h-1.5c-0.4,0-0.9,0.2-1.1,0.6c-0.4,0.9-0.9,1.7-1.3,2.5
				l-2.5,4.8l-4.3,8.1c-1.2,2.3-2.2,4.1-2.9,5.4c-0.3,0.6-0.6,1.1-0.8,1.5l-0.2,0.4c0,0.1-0.1,0.1-0.1,0.1l0.1-0.1l0.2-0.4
				c0.2-0.4,0.4-0.9,0.7-1.5c0.7-1.3,1.6-3.2,2.8-5.5s2.6-5.1,4.2-8.1c0.8-1.5,1.6-3.1,2.5-4.8l1.3-2.5c0.3-0.5,0.8-0.7,1.4-0.7h1.5
				l20.4-0.4l6.2-0.1L249,333.3L249,333.3z"/>
			<path id="Dada" class="st52" d="M162.1,298.9c0,1,0.1,2.1,0.3,3.1c0.4,2.3,4,11.8,12.3,12.7c8.2,0.9,6.7-7.3,6.4-8.9
				c-0.3-1.3-2.4-5.2-3.5-5.5c-2.3-0.6-9.7-2.1-13.4-1.9C163.5,298.5,162.8,298.6,162.1,298.9z"/>
		</g>
		<g id="LenganKanan">
			<path class="st52" d="M197.4,354.6l-4.3-4.3l-7.8-1.8c-0.6-0.1-1.1-0.1-1.7,0.1c-2,0.7-7,2.3-7.2,2.3c-0.1,0-23.8-8-23.8-8
				l-2.7,10.2l28.6,5.1c0.6,0.1,1.1,0.1,1.7,0.1l12.8-0.8c0,0,0.7-0.7,0.3-1.1s2.3,0.7,2.6,0.7s0.9,0.2,1.4-0.3
				C197.8,356.1,197.8,355.2,197.4,354.6z"/>
			<path class="st53" d="M193.4,356.3c-0.5-0.1-0.9-0.2-1.3-0.3c-0.8-0.2-2-0.6-3.3-0.9s-2.5-0.5-3.3-0.7c-0.5,0-0.9-0.1-1.4-0.3
				c0.5,0,0.9,0,1.4,0.1c1.1,0.1,2.3,0.3,3.4,0.6c1.1,0.3,2.2,0.6,3.3,0.9C192.6,355.9,193,356.1,193.4,356.3z"/>
			<path class="st53" d="M197.4,354.6c-0.6-0.2-1.3-0.3-1.9-0.6c-1.2-0.4-2.8-0.8-4.7-1.3c-1.5-0.5-3.1-0.8-4.7-1
				c-0.7,0-1.3,0-2,0.1c0.2-0.1,0.3-0.2,0.5-0.2c0.5-0.1,1-0.2,1.5-0.2c1.6,0.1,3.2,0.4,4.7,0.9c1.8,0.5,3.5,0.9,4.6,1.4
				c0.6,0.2,1,0.4,1.4,0.5C197.1,354.4,197.2,354.5,197.4,354.6z"/>
			<path class="st42" d="M149.4,304c0,0-5.3,4.6-6.7,10.8c-1.4,6.2-6.2,28.1-4.7,31.8c1.4,3.7,13.6,7.4,13.6,7.4l2.2-10l-0.9-1.8
				c-0.4-0.2-0.6-0.6-0.5-1c0.4-2.4,3.1-16.9,3.2-21.2C155.6,315,149.4,304,149.4,304z"/>
			<path class="st48" d="M152.1,341.9L152.1,341.9L152.1,341.9c-0.1-0.4-0.2-0.8-0.4-1.1c-0.3-0.4-0.6-0.7-0.9-0.9
				c-0.4-0.2-0.8-0.4-1.2-0.5s-0.8-0.1-1.3,0c0.4,0.2,0.8,0.3,1.1,0.5s0.6,0.3,0.9,0.6c0.5,0.3,0.9,0.7,1.3,1.1
				c-0.3-0.2-0.6-0.4-1-0.5c-0.6-0.2-1.1-0.3-1.7-0.3c-0.6,0-1.2,0.1-1.7,0.4c-0.5,0.2-1,0.6-1.4,1c0.6-0.1,1.1-0.3,1.6-0.3
				c0.5-0.1,1-0.1,1.6-0.1C150,341.6,151,341.7,152.1,341.9C152.1,342,152.1,342,152.1,341.9C152.1,342,152.1,342,152.1,341.9z"/>
			<path class="st48" d="M153.9,340.8l0.9,0.2c0.8,0.2,1.2,1.1,1,1.8v0.1l-4,11c-0.2,0.6-0.7,0.9-1.3,0.8l-1.8-0.3
				c-0.4-0.1-0.6-0.5-0.6-0.8v-0.1l4.1-11.9C152.5,341,153.2,340.6,153.9,340.8z"/>
		</g>
		<g id="Kepala">
			
				<ellipse id="TopiBelakang" transform="matrix(0.9676 -0.2524 0.2524 0.9676 -64.6206 53.0314)" class="st55" cx="174.4" cy="278.4" rx="35.3" ry="12.8"/>
			<g id="Leher">
				<path id="Leher_x5F_Base" class="st52" d="M167.8,284.5l2.9-0.1c2.6-0.1,4.8,2,4.9,4.7l0.5,11.8c0.1,2.7-1.9,5-4.5,5.2l-2.9,0.1
					c-2.6,0.1-4.8-2-4.9-4.7l-0.5-11.8C163.2,286.9,165.2,284.6,167.8,284.5z"/>
				<path id="Leher_x5F_Shad" class="st53" d="M176.1,298.6c0,0-7.2-1.5-9.8-4c0,0,6.2,11,9.7,7.1
					C176.5,301.2,176.1,298.6,176.1,298.6z"/>
			</g>
			<path id="Rambut_x5F_Samping" class="st56" d="M177.8,258.2c3.7-1.3,9.7,0.3,11,9.1c1,6.6,0.2,14.4-3.5,15.7
				c-3.7,1.3-8-4.9-10.2-11.1C172.9,265.6,174.1,259.5,177.8,258.2z"/>
			<path id="BaseKepala" class="st52" d="M178.9,298.9L178.9,298.9c-7.9,0.9-15.3-4-17.5-11.7l-3.6-11.7
				c-0.9-8.4,2.2-17.4,13.1-18.6l0,0c8.4-0.8,15.9,5.2,16.8,13.6l0.8,11.8C188.5,291.5,185.5,298.1,178.9,298.9z"/>
			<path id="Rambut_x5F_Base" class="st56" d="M163.2,280c0.2-0.8,1.5,3.7,1.8,2.7c0.4-1.8,1.5-2.6,1.1-5.6c-0.2-1.1-0.1-2.3,0-3.4
				c3.5-4.7,17.8-7.4,21.5-2.7c0,0,0-16.6-16-14.7c-17,2-14.3,15.3-13.9,19.3c0.6,5.3,2.9,15.7,5.7,16.3
				C163.5,291.7,161.7,287.3,163.2,280z"/>
			<g id="Telinga">
				
					<ellipse id="Telinga_x5F_Base" transform="matrix(0.9771 -0.2127 0.2127 0.9771 -56.3926 40.6001)" class="st52" cx="160.5" cy="282.4" rx="3.7" ry="5"/>
				<path id="Telinga_x5F_Garis" class="st57" d="M163,282.3c-0.2-0.7-0.6-1.3-1.1-1.8s-1.2-0.9-1.9-1.1s-1.4,0-2,0.3
					c1.2,0,2.4,0.5,3.2,1.4c0.1,0.1,0.3,0.3,0.4,0.5l-0.1-0.1c-0.4-0.2-0.8-0.2-1.3-0.1c-0.4,0.1-0.7,0.4-0.9,0.7
					c0.6-0.2,1.3-0.2,1.9,0c0.3,0.1,0.6,0.3,0.9,0.5l0.4,0.3c0,0,0,0,0.1,0c0.1,0.1,0.2,0.3,0.2,0.4c0.1,0.3,0.3,0.6,0.5,0.9
					c0-0.3,0-0.7,0-1C163.2,283,163.1,282.7,163,282.3z"/>
			</g>
			<path id="Poni" class="st56" d="M188,270.2c-0.6-0.5-5.5-3-7.1-2.2c0.3-0.6,0.4-0.9,0.4-0.9s-7.1-1.1-6.6,1.9
				c0.2,1.7-0.3,3.5-1.4,4.8c-0.1,0.1-0.1,0.2-0.1,0.2c0,0.2,0.2,0.3,0.4,0.2c3.4-0.8,5.5-3.5,6.7-5.3c0,0.1,0,0.2,0,0.3
				c0.3,2.3-0.3,4.6-1.6,6.4c-0.1,0.1-0.1,0.2,0,0.2c0,0.1,0.2,0.2,0.3,0.2c6.1-1.5,8.6-4,9.2-5.5
				C188.3,270.4,188.1,270.3,188,270.2z"/>
			<path id="Hidung" class="st57" d="M180.1,281.2c0.6,0.6,1,1.3,1.5,2s0.8,1.5,1,2.3c0.1,0.2,0.1,0.5,0.1,0.7c0,0.1,0,0.3-0.1,0.4
				c-0.1,0.2-0.2,0.3-0.3,0.4c-0.2,0.1-0.4,0.2-0.6,0.3c-0.2,0.1-0.4,0.1-0.6,0.1c-0.8,0.1-1.7,0-2.5-0.2c0.8-0.1,1.6-0.2,2.4-0.4
				c0.2,0,0.4-0.1,0.5-0.2c0.2-0.1,0.3-0.1,0.4-0.2c0.1-0.1,0.1-0.2,0.1-0.3c0-0.2,0-0.3-0.1-0.5c-0.2-0.7-0.5-1.5-0.8-2.2
				C180.7,282.7,180.4,282,180.1,281.2z"/>
			<g id="Mulut">
				<path id="Base" class="st57" d="M183.1,291.1c-0.7,0.5-1.4,0.9-2.2,1c-0.8,0.2-1.7,0.2-2.5,0.1s-1.6-0.3-2.4-0.6
					c-0.4-0.1-0.8-0.3-1.1-0.5c-0.4-0.2-0.7-0.4-1-0.7c0.4,0.1,0.8,0.2,1.2,0.3l1.2,0.3c0.4,0.1,0.8,0.2,1.2,0.2l0.6,0.1l0.6,0.1
					c0.8,0.1,1.6,0.1,2.4,0C181.6,291.6,182.3,291.4,183.1,291.1z"/>
				<path id="shad" class="st57" d="M181.4,293.5c-0.1,0.3-0.4,0.5-0.7,0.6s-0.6,0.2-0.9,0.2c-0.3,0-0.6,0-0.9-0.1
					c-0.3-0.1-0.5-0.3-0.8-0.5c0.3,0,0.6-0.1,0.9-0.1c0.3,0,0.5,0,0.8,0h0.8C180.9,293.6,181.1,293.6,181.4,293.5z"/>
			</g>
			<g id="Mata_Kanan_1_">
				<path id="Alis" class="st56" d="M168.3,278.5c0.7-0.3,1.3-0.5,2-0.7s1.4-0.3,2.1-0.4c0.7-0.1,1.5-0.1,2.2,0
					c0.8,0.1,1.4,0.6,1.9,1.2l-0.1,0.1c-0.6-0.2-1.3-0.4-2-0.4c-0.7-0.1-1.4-0.1-2-0.2c-0.7,0-1.4,0.1-2.1,0.2
					C169.7,278.3,169,278.4,168.3,278.5L168.3,278.5z"/>
				
					<ellipse id="Mata_Kanan" transform="matrix(0.9989 -4.693202e-02 4.693202e-02 0.9989 -13.0466 8.5287)" class="st56" cx="175.1" cy="282.1" rx="0.8" ry="1.5"/>
			</g>
			<g id="Mata_Kiri_1_">
				<path id="Alis_1_" class="st56" d="M187.4,277.2c-0.4,0-0.9,0-1.3,0.1c-0.4,0-0.8,0.1-1.2,0.3c-0.4,0.2-0.7,0.3-1,0.5
					c-0.4,0.2-0.7,0.4-1,0.7h-0.1c0-0.5,0.3-1,0.6-1.3c0.4-0.3,0.9-0.5,1.4-0.5c0.5-0.1,0.9-0.1,1.4,0
					C186.5,277,186.9,277.1,187.4,277.2L187.4,277.2z"/>
				
					<ellipse id="Mata_Kiri" transform="matrix(0.9989 -4.693202e-02 4.693202e-02 0.9989 -13.0125 8.9786)" class="st56" cx="184.7" cy="281.6" rx="0.8" ry="1.5"/>
			</g>
			<g id="TopiDepan">
				<path class="st58" d="M208.6,271.7c-1.8-6.9-18.5-8.4-37.4-3.5c-17,4.4-29.9,12.6-31,19.2c-1.8-6.8,12.1-16.4,30.9-21.3
					s35.6-3.4,37.4,3.5C208.7,270.2,208.8,271,208.6,271.7z"/>
				<path class="st59" d="M140.9,283.2L140.9,283.2c0,0,3.8-9.8,32.5-16.7c0,0,26.2-7.6,34.6,1.6l0,0c-0.9-1.5-5.7-4.2-7.3-4.7
					l-30.5-11.1c-0.7-0.2-1.5-0.1-2,0.4l-20.5,22.1C146.2,276.1,140.8,281.4,140.9,283.2L140.9,283.2z"/>
			</g>
		</g>
		<g id="Sepatu_Kanan">
			<path class="st42" d="M237.6,372.1c-2-1.3-4.4-1.8-6.8-1.3l-2.3,13.1c2.9-0.3,6,0.9,8.7-0.3c2.2-1,3.6-3.2,3.6-5.6
				C240.8,375.6,239.6,373.4,237.6,372.1z"/>
			<path class="st60" d="M230.9,370.5c0-0.1,0.4-0.2,1.2-0.3c1.1-0.1,2.2-0.1,3.3,0.2c1.7,0.4,3.2,1.3,4.3,2.6
				c0.7,0.7,1.3,1.6,1.7,2.6s0.6,2.2,0.5,3.3c-0.1,1.1-0.4,2.2-1.1,3.2c-0.6,0.9-1.4,1.6-2.3,2.2c-1.5,0.8-3.2,1.1-4.9,0.9
				c-1.1-0.1-2.2-0.3-3.2-0.6c-0.7-0.2-1.1-0.4-1.1-0.5s0.4-0.1,1.2-0.1s1.9,0.1,3.1,0.1c1.5,0,2.9-0.4,4.2-1.1
				c0.7-0.4,1.3-1,1.8-1.7c0.5-0.8,0.7-1.6,0.8-2.5c0.1-1.8-0.5-3.5-1.7-4.8c-1-1.1-2.2-2-3.6-2.5c-1-0.3-2-0.5-3-0.6
				C231.3,370.7,230.9,370.6,230.9,370.5z"/>
			<path class="st61" d="M233.3,374.6c0.1,0.1-0.7,1.1-1.2,2.5s-0.6,2.7-0.7,2.7c-0.1-1,0-1.9,0.4-2.8
				C232.1,376.1,232.6,375.3,233.3,374.6z"/>
		</g>
		<g id="Kaki_Kiri">
			<path class="st42" d="M200.2,422.5l-5.5,25.3l31.4,7c2.1-7.9-14.4-12.7-14.4-12.7l4.2-16L200.2,422.5z"/>
			<g class="st62">
				<path class="st51" d="M202.3,438.5c-0.7,0.1-1.2,0.6-1.2,1.3c0,0.7,0.6,1.2,1.2,1.2c0.7-0.1,1.3-0.6,1.3-1.3
					c-0.1-0.7-0.7-1.2-1.4-1.1"/>
			</g>
			<path class="st51" d="M194.7,447.7l0.6-2.5l30.9,7.9c0.2,0.5,0.2,1.1-0.1,1.6L194.7,447.7z"/>
			<path class="st61" d="M212.2,442c0,0.1-0.8,0-1.7,0.4c-0.9,0.3-1.4,0.9-1.5,0.8s0.3-0.9,1.4-1.3
				C211.4,441.5,212.3,441.9,212.2,442z"/>
			<path class="st61" d="M215.2,444.1c0,0.2-0.7,0.3-1.4,0.8s-0.9,1.2-1.1,1.1c-0.2,0-0.1-0.9,0.8-1.6
				C214.3,443.8,215.3,444,215.2,444.1z"/>
			<path class="st61" d="M216.2,448.5c-0.1,0-0.2-0.8,0.4-1.6c0.6-0.8,1.4-0.9,1.4-0.8s-0.5,0.5-1,1.1
				C216.6,447.9,216.4,448.5,216.2,448.5z"/>
			<path class="st61" d="M212.8,438.2c-0.1,0.1-0.7-0.2-1.6-0.4c-0.9-0.1-1.6,0-1.7-0.2c-0.1-0.2,0.7-0.6,1.8-0.4
				C212.3,437.5,212.9,438.1,212.8,438.2z"/>
			<path class="st43" d="M173.3,359.7l17.2-1.5c0,0,28-3.4,34.8,1.4s6.9,11.2,5.6,17.6s-14.1,47.7-14.1,47.7c1,1.4,1.5,3.1,1.3,4.9
				c-0.4,2.3-1.9,4.2-4.1,5l-16.6-3.8c0,0-2.3-0.5-1-2.7s2.2-2.7,2.2-2.7l-0.5-4.1c0,0,4.3-10.9,4.6-12.3c0.3-1.5,3-22.8,3-22.8
				l2.8-6.6c0,0-9.1-2.9-17-4.9l-5.1-0.6C179,373.3,173.4,367.2,173.3,359.7L173.3,359.7z"/>
			<path class="st63" d="M162.8,361.7c-4.5,0.7-11.2,2.1-13.9,5.8c-3.6,4.9-5.5,11.6-5.2,16c0.4,6.6,4.5,7.9,7.6,9.1
				c1.4,0.5,2.8,0.7,4.3,0.4l52.5-7.2l0.5-9.1l-25.4-5.4l-10-11.6L162.8,361.7z"/>
			<path class="st64" d="M219.6,379.3c-1.2,6.4-14.1,47.7-14.1,47.7c1,1.4,1.5,3.1,1.3,4.9c-0.1,0.4-0.2,0.8-0.3,1.2l-9.1-2.1
				c0,0-2.2-0.5-1-2.7c0.5-1.1,1.3-2,2.2-2.7l-0.5-4.1c0,0,4.3-10.9,4.6-12.3c0.3-1.5,3-22.8,3-22.8l2.8-6.6c0,0-9.1-3-17-4.9
				l-5.1-0.6c-7.3-0.8-12.9-6.9-13.1-14.3l5.1-0.9c0,0,28.8-2.1,35.6,2.7C220.9,366.5,220.9,373,219.6,379.3z"/>
			<path class="st65" d="M199,425.7c0.9-0.4,1.8-0.5,2.8-0.5s1.9,0.1,2.9,0.3c1.9,0.4,3.7,1.2,5.2,2.4c-0.9-0.2-1.8-0.5-2.7-0.8
				s-1.8-0.5-2.7-0.7C202.7,426,200.9,425.8,199,425.7z"/>
			<path class="st65" d="M216.8,424.8c-0.7-1.2-1.2-2.3-1.8-3.4s-1.2-2.2-2-3.2c0.7,0.2,1.2,0.6,1.7,1.1s0.9,1.1,1.2,1.7
				s0.6,1.2,0.7,1.9C216.7,423.5,216.8,424.2,216.8,424.8z"/>
			<path class="st65" d="M188.4,373.9L188.4,373.9c-0.2,0-0.3-0.2-0.3-0.3c0.6-3.9-3.2-13.3-3.2-13.4c-0.1-0.2,0-0.3,0.2-0.4
				s0.3,0,0.4,0.2c0.2,0.4,3.9,9.6,3.3,13.7C188.8,373.8,188.6,373.9,188.4,373.9z"/>
			<path class="st65" d="M209.8,376.2c-0.1,0.3-0.3,0.5-0.4,0.8c0.2-0.7,0.4-1.3,0.6-2c0.3-0.9,0.7-1.8,1.1-2.7
				c0.4-0.9,0.9-1.7,1.4-2.6c-1.7,1.3-2.9,3-3.5,5c-0.3,1-0.6,2-0.7,3c-0.1,0.8-0.1,1.6,0,2.3c-0.6,0.9-1.1,1.9-1.3,3
				c-0.1,0.6-0.1,1.2-0.3,1.8c-0.1,0.6-0.3,1.1-0.6,1.7c-0.5,1.1-0.8,2.2-1,3.4c-0.2,1.2-0.2,2.4,0.1,3.6h0.1
				c0.3-1.2,0.6-2.3,0.8-3.4c0.1-0.6,0.2-1.1,0.3-1.7s0.2-1.2,0.3-1.7c0.1-0.6,0.2-1.2,0.4-1.7c0.2-0.6,0.5-1.1,0.7-1.6
				c0.4-0.9,0.6-1.9,0.7-2.9c0-0.1,0.1-0.2,0.1-0.3c0.6-1.1,1.2-2.3,1.9-3.4c0.3-0.6,0.7-1,1.1-1.6c0.4-0.6,0.8-1,1.3-1.5
				C211.5,374,210.5,375,209.8,376.2z"/>
			<path class="st65" d="M202.1,375.9c-1.7-0.3-3.3-0.6-5-0.8c-3.4-0.3-6.7-0.4-10.1-0.4c-1.7,0-3.4,0-5-0.1c-1.7-0.1-3.4-0.3-5-0.4
				c-1.1-0.1-2.2-0.1-3.2-0.1c-0.1-0.5-0.3-1-0.5-1.5s-0.5-1-0.8-1.4c-0.7-0.9-1.5-1.7-2.4-2.3c-0.4-0.3-0.9-0.6-1.4-0.9
				c-0.2-0.2-0.4-0.3-0.6-0.5c-0.2-0.2-0.4-0.3-0.7-0.5c-0.5-0.3-1.1-0.4-1.6-0.5c-0.6-0.1-1.2,0-1.7,0.2v0.1c1,0.3,2,0.6,3,0.9
				c0.5,0.1,1,0.3,1.5,0.6c0.5,0.3,0.9,0.6,1.2,1.1l1,1.3c0.3,0.4,0.6,0.8,0.9,1.2c0.3,0.4,0.6,0.8,1,1.2c0.3,0.4,0.6,0.7,1,1.1
				c-2,0-4.1,0-6.1,0.1c-0.3-0.7-0.8-1.3-1.4-1.7c-0.7-0.5-1.5-0.9-2.3-1.1s-1.7-0.2-2.5-0.2c-0.4,0-0.8,0.1-1.2,0.2
				s-0.8,0.2-1.2,0.4c0.4,0.1,0.8,0.1,1.2,0.1l1.2,0.1c0.8,0.1,1.5,0.2,2.3,0.4c1.4,0.3,2.7,1,3.8,1.9c-0.1,0-0.3,0-0.4,0v0.1
				c0.2,0,0.4,0,0.6,0.1l0.1,0.1v-0.1c3.1,0.3,6.3,0.5,9.4,0.6c1.7,0,3.4-0.1,5-0.1c1.7,0,3.4,0.2,5,0.3c3.4,0.4,6.7,0.6,10,0.9
				c1.6,0.1,3.3,0.3,5,0.6s3.4,0.4,5,0.7l0.1-0.1C205.4,376.7,203.7,376.2,202.1,375.9z"/>
			<path class="st61" d="M215,429.8c-0.5,0-0.9,0.2-1.2,0.6c-0.2,0.3-0.4,0.6-0.6,0.9c-0.3,0.5-0.5,1.1-0.6,1.7
				c0,0.2-0.1,0.4-0.1,0.5c-0.1-0.2-0.2-0.3-0.3-0.5c-0.3-0.5-0.8-0.9-1.2-1.3c-0.3-0.2-0.6-0.4-0.9-0.6c-0.2-0.1-0.4-0.2-0.6-0.2
				c-0.3-0.1-0.5,0-0.7,0.2s-0.3,0.6-0.1,0.8c0.1,0.2,0.2,0.3,0.4,0.5c0.3,0.2,0.5,0.5,0.8,0.7c0.5,0.4,1,0.7,1.5,0.9
				c0.4,0.2,0.8,0.3,1.3,0.3c0,0.1,0,0.1,0.1,0.2c0,0,0-0.1,0-0.2l0,0c0.1,0.1,0.1,0.1,0.1,0.1v-0.1c0,0,0,0,0.1,0c0,0,0,0-0.1,0
				c0-0.1,0-0.2-0.1-0.3c0-0.3,0.1-0.6,0.2-1c0.1-0.5,0.4-1,0.7-1.5c0.2-0.3,0.4-0.5,0.6-0.8c0.2-0.2,0.5-0.4,0.7-0.4
				s0.2,0.3,0.2,0.6c0,0.3-0.1,0.6-0.2,0.9c-0.2,0.5-0.5,1-0.8,1.4c-0.6,0.7-1.2,0.9-1.2,0.9s0.7,0,1.5-0.7c0.5-0.4,0.8-0.9,1-1.5
				c0.1-0.3,0.2-0.7,0.2-1.1c0-0.2,0-0.4,0-0.6C215.5,430.1,215.3,429.9,215,429.8z M211.5,433.7c-0.5-0.3-1-0.6-1.4-0.9
				c-0.3-0.2-0.5-0.4-0.7-0.7c-0.1-0.1-0.2-0.2-0.3-0.3c0-0.1-0.1,0,0-0.2c0.1-0.1,0.4-0.1,0.7,0.1c0.3,0.1,0.6,0.3,0.8,0.5
				c0.5,0.3,0.9,0.7,1.2,1.1s0.5,0.7,0.7,0.9v0.1C212.2,434,211.9,433.8,211.5,433.7z"/>
		</g>
	</g>
	<path id="rumput" class="st13" d="M1.5,461.8c-1.9-5.1-0.1-10.5,6.6-12c7-1.4,14.2,1.5,18.1,7.5c3.8-9.4,12.8-16,22.2-16.6
		c9.4-0.5,18.7,5.2,23,14.1c4.4-3.2,10.2-3.5,14.9-0.8c4.5,2.7,7.3,8.4,6.9,14.1c9.6-5.4,21.6-3.8,29.5,3.9c7.7,7.6,4.3,19,1.2,22.2
		c-28.4-3.6-22.7-1.6-52.2-7.8C40.3,479.6,23.5,472,1.5,461.8z"/>
	<path id="Mask" class="st51" d="M-1-1v497h358V-1H-1z M326.6,475.4c-21.1,14.9-114.8,12-151.8,12.2C131.3,487.8,11,498.4,6.3,436.9
		c-5.2-69.1,18.6-58.6,12.5-159.6S-2.3,196.5,8,106.6s41.8-80.4,110-83.3s245.3-72,219.5,93.5c-18.1,116.5-34.7,151-13.9,214.4
		S347.6,460.5,326.6,475.4z"/>
	<g id="rumputDepan">
		<g id="TumbuhanOrange2">
			<path class="st66" d="M270.6,459.8c-1.3-4.4,5.1-4.6,5.1-4.6s-13.1-7-12-11.3s7.8-1.6,7.8-1.6s-14.5-9-12.8-12.5s6.6-1.4,6.6-1.4
				s-11-17.9-6.6-20.3c4.8-2.6,12.8,16.3,12.8,16.3s1.3-7.6,4.3-7.2c3.1,0.4,6,17.8,6,17.8s2.4-7.7,6.5-6.4s4.3,19.8,4.3,19.8
				s2.6-7,6.9-4.4s-5.9,22.4-5.9,22.4S272.2,465.3,270.6,459.8z"/>
			<path class="st67" d="M301.4,473.7c-3.9-2.2-10.6-11.7-17.2-22.2l3.3-14c0.1-0.4-0.2-0.8-0.6-0.9s-0.8,0.2-0.9,0.6l-2.9,12.5
				c-2.3-3.7-4.5-7.4-6.6-11l0.6-12.5l0,0c0-0.4-0.3-0.8-0.8-0.8l0,0c-0.4,0-0.8,0.3-0.8,0.7l-0.5,10c-5.6-9.7-9.7-17.5-9.9-17.7
				c-0.2-0.4-0.7-0.5-1.1-0.3s-0.5,0.7-0.3,1.1c0.4,0.8,4.3,8,9.5,17.1l-7.6-4.6l0,0c-0.4-0.2-0.9-0.1-1.1,0.3s-0.1,0.9,0.3,1.1
				l10.1,6.1c2,3.4,4.1,7.1,6.3,10.6l-10.7-4.3c-0.4-0.2-0.9,0-1,0.4s0,0.9,0.4,1l12.7,5.1c6.8,10.8,13.7,20.7,18,23.1
				c0.2,0.1,0.3,0.1,0.5,0.1s0.4-0.2,0.6-0.4l0,0C301.9,474.4,301.7,473.9,301.4,473.7z"/>
		</g>
		<g id="TumbuhanOrange">
			<path class="st28" d="M288.9,443.3c3.7-4.3,11.5,1.9,11.5,1.9s-6.7-17.8-0.4-19.8c6.4-2,10.9,6.7,10.9,6.7s-6-20.6,0.1-21.4
				c6.1-0.9,9.2,5.5,9.2,5.5s8.7-23.4,16.6-20.6c8.7,3-4.7,24-4.7,24s10.6-4.1,13.6-0.7c3,3.3-14.4,18.4-14.4,18.4s12-2.9,15.2,2
				s-18.7,18.1-18.7,18.1s11.3-2.3,13.2,3.7s-33.6,9.8-33.6,9.8S284.1,448.7,288.9,443.3z"/>
			<path class="st68" d="M335.4,425L335.4,425c-0.2-0.4-0.7-0.5-1-0.3l-13.8,7.1c5.6-12.6,10.8-22.6,10.9-22.9c0.2-0.4,0-0.9-0.4-1
				l0,0c-0.4-0.2-0.9,0-1,0.4c-0.5,1-5.6,10.9-11,23.1l-4-12.8c-0.1-0.4-0.6-0.6-1-0.5s-0.6,0.6-0.5,1l4.5,14.5
				c-2,4.6-4.1,9.5-5.9,14.3l-7.9-14.7l0,0c-0.2-0.4-0.7-0.5-1.1-0.3l0,0c-0.4,0.2-0.5,0.7-0.3,1.1l8.5,16c-1.5,4.1-2.9,8.2-4,11.9
				l-9.9-12.9c-0.3-0.3-0.8-0.4-1.1-0.1l0,0c-0.3,0.3-0.4,0.7-0.1,1.1l10.6,13.8c-1.7,6.6-2.4,12.2-1.3,15.5
				c0.1,0.3,0.4,0.5,0.8,0.5c0.1,0,0.1,0,0.2,0c0.4-0.1,0.6-0.6,0.5-1c-1-3-0.4-8.1,1.2-14.3l18.4-1.8l0,0c0.4,0,0.7-0.4,0.7-0.9
				c0-0.4-0.4-0.7-0.9-0.7l-17.8,1.7c1-3.6,2.4-7.6,3.9-11.6l0.1-0.1l20.8-6.6c0.4-0.1,0.6-0.5,0.5-0.9l0,0c-0.1-0.4-0.6-0.6-1-0.5
				l-19.8,6.2c1.9-5,4-10.1,6.2-15l15.5-8C335.5,425.9,335.6,425.4,335.4,425z"/>
		</g>
		<g>
			<g>
				<defs>
					<path id="SVGID_18_" d="M162.6,454.5l0.9,38c0,0,70.3-3.9,89.7-5.2c25.1-1.7,54.8-3.1,88.4-8.4c7.6-1.2-4.3-35.9-4.3-35.9
						l-143.2-3.3L162.6,454.5z"/>
				</defs>
				<clipPath id="SVGID_19_">
					<use xlink:href="#SVGID_18_"  style="overflow:visible;"/>
				</clipPath>
				<g class="st69">
					<path class="st70" d="M335.6,479.4c5.1-2.2,8.6-8.4,5.2-12.6c-2.7-3.3-7.5-3.8-10.8-1.1c-0.7,0.6-1.3,1.3-1.8,2.1
						c1.2-6.7-2.1-14.4-7.4-17c-5.3-2.7-11.9,0.1-14.7,6c-5-5.8-14.2-4-17.2,3.2c-4.6-5.9-10.5-10.8-17-11.8
						c-7.2-0.9-14,3.5-15.9,10.5c-5.6-2.9-12.5-1.1-16.6,4.2c-2.5-9.4-16.1-16.3-25-14.1c-8.1,2.1-11.7,8.6-11.4,14.8
						c-3.9-2.6-9.1-2-12.3,1.5c-3.3,3.5-4.4,9.6-2.8,14.6c-15.1-4.5-15.7,7.8-10.8,7.8c17.1,0,53.3,1.3,92.1-1.3
						C307.4,484.1,327.2,481.8,335.6,479.4z"/>
				</g>
			</g>
		</g>
	</g>
</g>
</svg>
